<?xml version="1.0" standalone="no"?>
<!DOCTYPE svg PUBLIC "-//W3C//DTD SVG 20010904//EN"
 "http://www.w3.org/TR/2001/REC-SVG-20010904/DTD/svg10.dtd">
<svg version="1.0" xmlns="http://www.w3.org/2000/svg"
 width="1837.000000pt" height="165.000000pt" viewBox="0 0 1837.000000 165.000000"
 preserveAspectRatio="xMidYMid meet">
<metadata>
Created by potrace 1.15, written by Peter Selinger 2001-2017
</metadata>
<g transform="translate(0.000000,165.000000) scale(0.100000,-0.100000)"
fill="#000000" stroke="none">
<path d="M0 1160 l2 -490 21 -5 c18 -4 148 -9 380 -14 23 -1 36 -5 32 -11 -9
-14 9 -12 24 2 10 11 14 10 22 -4 12 -22 29 -23 29 -2 0 13 14 15 88 13 99 -2
125 -6 117 -20 -4 -5 -1 -9 4 -9 6 0 11 5 11 10 0 6 7 10 16 10 8 0 12 -4 9
-10 -3 -5 -1 -10 4 -10 6 0 11 4 11 9 0 6 126 7 315 4 235 -4 315 -3 315 6 0
8 -33 11 -110 10 -60 0 -114 3 -121 7 -7 4 -35 6 -64 5 -28 -1 -145 3 -261 9
-188 9 -210 12 -224 30 -16 21 -48 27 -175 34 -44 3 -100 8 -125 12 l-45 8 50
7 c29 3 88 0 138 -9 86 -14 89 -14 108 7 11 11 25 21 32 21 7 -1 5 -6 -5 -14
-25 -19 -22 -27 6 -20 13 3 27 1 30 -5 4 -6 2 -11 -3 -11 -7 0 -7 -7 1 -20 8
-12 24 -20 41 -20 34 0 32 22 -1 30 -22 5 -22 5 -2 18 12 7 20 8 20 2 0 -14
19 -12 35 4 15 14 91 16 113 2 7 -4 20 -2 28 5 12 10 15 10 12 -1 -2 -8 5 -16
16 -18 12 -3 16 0 11 8 -5 9 -1 10 16 5 57 -16 89 -30 89 -36 0 -4 15 -6 33
-6 20 2 38 -5 50 -17 9 -11 20 -16 25 -11 4 4 1 10 -5 12 -7 3 -13 14 -13 24
0 17 6 20 33 17 19 -2 31 -8 30 -15 -2 -7 5 -13 15 -13 9 0 27 -3 40 -6 13 -4
22 -2 22 5 0 6 -15 11 -32 12 l-33 1 28 8 c34 10 57 3 57 -16 0 -8 5 -14 11
-14 5 0 7 -4 4 -10 -6 -9 8 -14 28 -11 4 1 80 3 170 6 89 3 185 8 212 10 34 4
45 2 35 -4 -8 -6 -11 -13 -8 -17 10 -9 98 5 98 16 0 5 47 10 104 12 79 2 102
0 99 -9 -3 -8 -14 -11 -28 -7 -13 3 -26 1 -29 -5 -5 -7 6 -11 31 -11 37 -1
113 -27 83 -29 -8 -1 5 -11 30 -23 31 -15 69 -22 120 -24 41 -2 77 -4 80 -4 3
0 -8 -8 -23 -16 -27 -15 -28 -16 -10 -29 22 -18 47 -19 72 -3 15 9 24 8 43 -4
20 -13 25 -14 25 -3 0 8 -4 12 -8 9 -4 -2 -13 5 -20 17 -14 27 4 41 40 32 20
-5 23 -3 18 11 -5 13 0 16 26 16 24 0 28 3 17 10 -8 5 -23 7 -32 4 -18 -5 -25
10 -9 20 13 8 71 -17 71 -31 0 -7 10 -12 23 -12 35 1 56 -6 78 -25 12 -10 23
-15 26 -12 3 3 15 -1 26 -9 17 -12 22 -11 47 16 20 23 29 27 33 16 7 -18 -8
-41 -21 -33 -7 4 -10 -4 -7 -25 3 -22 -1 -37 -13 -45 -20 -16 -16 -16 70 -14
54 1 57 0 53 -21 -2 -12 -1 -18 3 -15 4 4 7 13 7 19 0 16 134 10 154 -7 12 -9
13 -8 7 3 -6 9 -5 12 5 9 8 -3 13 -11 11 -17 -1 -7 2 -10 8 -6 6 3 8 10 5 15
-3 4 5 10 18 14 34 9 36 8 32 -15 -3 -12 -1 -18 3 -15 4 4 7 17 7 29 0 15 7
23 24 25 16 3 22 0 18 -10 -2 -7 -9 -12 -14 -11 -5 1 -10 -5 -10 -13 0 -12 3
-12 17 1 9 8 25 15 36 15 11 0 25 5 32 12 9 9 15 9 23 1 8 -8 25 -6 62 7 28
10 57 15 66 12 12 -4 11 -7 -5 -13 -10 -4 -29 -8 -41 -8 -13 -1 -23 -5 -23
-11 0 -8 46 -8 139 0 2 0 -14 15 -35 34 l-37 33 106 -3 c111 -3 135 7 68 27
-28 8 -38 16 -34 26 5 12 7 12 14 2 6 -10 13 -10 32 -2 14 7 35 9 48 6 15 -4
20 -2 15 5 -5 8 14 9 63 5 76 -6 122 3 86 17 -18 7 -19 8 -2 15 21 9 51 -1 42
-14 -3 -5 -1 -12 4 -16 6 -3 8 -12 4 -20 -3 -9 1 -15 11 -15 9 0 16 7 16 15 0
8 3 16 8 16 59 9 71 8 66 -6 -4 -9 0 -15 10 -15 20 0 21 -19 1 -26 -8 -4 -15
-12 -15 -19 0 -7 -7 -18 -15 -25 -20 -17 -19 -30 3 -28 9 1 34 0 55 0 31 -2
37 -5 37 -25 0 -16 12 -28 43 -45 35 -18 48 -20 77 -12 58 17 102 12 143 -16
21 -14 48 -26 60 -27 12 -1 27 -8 33 -15 12 -16 45 -13 52 6 2 7 -6 12 -20 13
-12 1 -1 5 27 10 50 8 64 2 65 -28 0 -11 -83 -40 -162 -57 -16 -4 -28 -13 -28
-21 0 -8 -4 -15 -9 -15 -5 0 -12 -7 -15 -16 -5 -14 -1 -15 21 -10 77 18 181
27 302 26 81 0 147 4 167 12 27 10 38 9 60 -3 21 -11 28 -11 31 -1 3 6 14 12
24 12 11 0 17 -4 14 -10 -6 -10 21 -3 40 10 6 4 22 10 37 14 21 5 26 3 22 -8
-3 -8 -13 -12 -24 -9 -10 3 -21 0 -25 -7 -5 -8 9 -10 47 -7 29 3 59 0 66 -5 8
-7 12 -7 12 0 0 5 -7 15 -15 22 -8 7 -13 16 -10 20 3 4 -3 7 -12 6 -9 0 -18 4
-20 10 -3 8 20 10 74 7 43 -2 83 -6 90 -8 7 -2 15 0 18 5 8 13 -59 39 -87 33
-22 -5 -22 -4 2 10 14 7 29 10 34 6 13 -11 37 1 46 25 l9 21 0 -21 c1 -13 9
-24 22 -27 16 -4 18 -3 9 9 -10 11 -2 12 53 7 39 -3 71 -1 83 5 19 11 19 11 0
12 -11 0 -16 3 -13 7 4 4 51 8 105 11 96 4 139 17 94 28 -12 4 -19 10 -17 15
3 4 13 6 23 2 11 -3 9 1 -6 11 -12 10 -27 14 -32 11 -6 -3 -10 -2 -10 3 0 16
342 26 455 14 55 -6 181 -9 280 -6 99 2 174 1 168 -2 -22 -10 -14 -24 12 -24
27 0 32 9 13 28 -9 9 17 12 119 12 77 0 134 -4 138 -10 3 -5 1 -10 -4 -10 -6
0 -11 -4 -11 -10 0 -11 69 -14 94 -4 9 3 16 11 16 16 0 6 -7 8 -15 5 -8 -4
-17 -2 -20 3 -4 6 14 10 41 10 27 0 99 5 162 11 62 6 116 9 119 6 3 -3 2 -11
-2 -17 -6 -9 -9 -9 -15 0 -6 9 -12 9 -30 0 -18 -10 -20 -14 -9 -21 10 -6 8 -9
-9 -9 -21 0 -22 -1 -7 -16 12 -12 19 -13 29 -5 9 8 15 8 18 2 2 -7 15 -7 41 1
43 13 49 28 10 28 -25 0 -26 1 -12 16 9 8 32 16 51 17 20 1 34 5 32 9 -5 8
140 15 208 10 45 -4 59 -22 17 -22 -27 0 -14 -20 14 -21 17 -1 15 -3 -8 -8
-39 -9 -68 -2 -61 15 3 8 -1 14 -9 14 -8 0 -15 -4 -15 -10 0 -5 -11 -10 -25
-10 -14 0 -25 -5 -25 -11 0 -6 -7 -9 -15 -5 -8 3 -15 1 -15 -5 0 -6 -4 -7 -10
-4 -5 3 -29 12 -52 19 l-43 12 -1 -28 c-1 -21 3 -28 18 -28 11 0 16 4 13 10
-4 6 5 10 19 10 14 0 26 -4 26 -10 0 -16 38 -12 66 6 22 15 30 15 67 4 23 -7
59 -13 80 -13 20 -1 37 -5 37 -10 0 -4 4 -5 10 -2 15 10 12 23 -7 29 -10 2 -1
2 20 -1 24 -3 37 -1 37 6 0 6 4 11 10 11 5 0 7 -7 4 -15 -4 -10 0 -15 11 -15
10 0 15 5 12 14 -4 9 7 17 31 25 20 7 43 15 50 18 9 3 10 -1 2 -21 -9 -25 -8
-26 23 -26 29 1 30 2 14 14 -13 10 -15 15 -5 19 10 4 11 7 1 18 -16 16 -17 39
-2 39 5 0 7 -4 4 -10 -4 -6 8 -10 29 -10 35 0 48 13 24 23 -7 3 -1 6 14 6 14
1 28 -4 30 -11 3 -8 27 -11 71 -11 60 1 67 -1 67 -18 0 -10 5 -19 11 -19 5 0
7 4 4 10 -3 5 3 10 15 10 12 0 19 -4 16 -9 -3 -5 4 -11 17 -15 34 -9 57 -7 57
4 0 17 -31 24 -42 9 -8 -11 -9 -11 -4 3 3 12 -2 18 -17 20 -31 4 -28 33 3 35
14 1 18 0 8 -3 -41 -12 -13 -21 57 -20 63 1 73 3 58 14 -15 11 -14 12 10 12
19 0 25 -4 21 -15 -4 -9 0 -15 10 -15 9 0 16 -4 16 -10 0 -5 7 -10 16 -10 8 0
13 4 9 9 -3 5 0 13 6 17 6 3 15 1 19 -6 5 -9 9 -8 13 4 4 10 -1 16 -16 19 -12
2 4 5 36 6 32 0 57 -3 57 -9 0 -5 7 -10 16 -10 8 0 12 4 9 10 -4 6 18 10 59
10 37 0 68 5 72 11 9 14 -15 29 -34 21 -9 -3 -13 -1 -9 5 7 12 -14 23 -43 23
-10 0 -22 9 -25 20 -3 11 -11 20 -16 20 -6 0 -7 5 -4 11 5 7 14 3 26 -10 11
-12 26 -21 33 -21 8 0 19 -7 26 -15 7 -8 21 -15 31 -15 10 0 21 -9 24 -20 4
-11 11 -17 17 -14 6 4 8 -1 3 -16 -6 -18 -4 -21 12 -18 10 2 17 10 15 16 -4
21 26 13 33 -8 7 -21 25 -28 25 -10 0 6 5 10 11 10 6 0 9 -7 5 -15 -3 -8 -1
-15 4 -15 6 0 10 11 10 25 0 16 6 25 16 25 8 0 12 -4 9 -10 -8 -12 7 -13 21
-1 14 13 76 23 69 11 -3 -6 -12 -10 -20 -10 -14 0 -29 -29 -20 -39 3 -3 14 0
24 6 11 7 23 8 35 1 20 -11 46 -4 46 13 0 7 -11 9 -30 6 -17 -4 -30 -2 -30 3
0 6 11 10 25 10 15 0 25 6 25 14 0 16 -41 29 -64 20 -9 -4 -16 -1 -16 6 0 7
-6 10 -12 8 -7 -3 -21 3 -31 13 -18 16 -17 17 23 3 72 -25 127 -29 145 -10 9
9 22 16 28 16 6 0 1 -7 -11 -16 -25 -17 -29 -34 -7 -34 8 0 15 -4 15 -10 0 -5
-4 -10 -10 -10 -5 0 -10 -4 -10 -9 0 -4 11 -6 24 -4 12 3 39 0 60 -5 20 -6 36
-7 36 -2 0 5 -6 10 -12 12 -7 3 30 5 82 5 52 0 104 2 115 3 11 2 41 0 68 -4
50 -6 58 -1 30 20 -17 13 -17 13 0 14 9 0 17 7 17 16 0 12 -6 15 -22 10 -13
-3 -27 -6 -32 -6 -4 0 -6 -7 -2 -15 4 -11 -1 -15 -17 -14 -12 0 -16 3 -10 6
20 8 15 23 -7 23 -11 0 -23 -7 -26 -15 -10 -25 -34 -17 -34 10 0 26 1 26 58
19 51 -5 60 -4 66 11 8 23 -2 34 -14 15 -6 -10 -10 -11 -10 -3 0 8 -25 13 -72
16 -57 2 -48 3 37 5 73 1 105 -2 95 -8 -11 -7 -12 -14 -5 -26 13 -20 64 -28
66 -11 1 7 2 18 3 26 1 19 41 28 95 23 l43 -4 -27 -24 c-16 -13 -25 -27 -22
-31 4 -3 16 2 27 12 17 15 24 16 45 7 14 -6 25 -15 24 -19 -4 -24 4 -33 26
-33 14 0 25 5 25 10 0 6 5 10 11 10 5 0 7 -4 4 -10 -3 -5 1 -10 10 -10 9 0 13
-4 10 -10 -4 -6 6 -10 22 -10 22 0 25 2 13 10 -10 7 7 10 59 10 58 0 77 4 87
18 20 26 17 35 -11 30 -31 -6 -31 -1 -2 22 12 10 19 21 15 25 -9 10 -48 -13
-48 -29 0 -19 -43 -25 -125 -18 -60 5 -66 7 -40 14 18 4 43 3 63 -3 37 -12 53
-6 34 13 -8 8 -41 12 -87 12 -96 -1 -98 11 -3 15 42 1 76 8 80 14 6 9 8 8 8
-2 0 -7 6 -11 14 -8 20 8 28 -4 15 -20 -9 -10 -7 -13 9 -13 27 0 45 23 30 38
-8 8 -6 9 9 6 12 -3 24 -1 27 5 4 6 13 4 25 -8 10 -10 25 -21 32 -23 11 -4 12
-9 2 -27 -17 -28 -16 -31 8 -31 15 0 19 5 15 15 -3 9 0 15 9 15 8 0 15 5 15
11 0 14 25 39 39 39 6 0 11 -4 11 -10 0 -5 9 -10 21 -10 11 0 17 4 14 10 -3 6
4 10 17 9 13 0 17 -3 11 -6 -7 -2 -13 -9 -13 -15 0 -12 40 0 58 19 12 12 17
11 36 -4 11 -10 23 -19 25 -20 2 -1 -2 -9 -9 -18 -7 -8 -8 -15 -2 -15 16 0 34
27 22 35 -5 3 -10 10 -10 15 0 11 32 0 42 -14 4 -6 15 -3 28 9 18 16 20 16 14
2 -8 -22 5 -22 21 0 11 14 17 15 38 6 14 -7 28 -9 32 -5 9 9 105 9 105 0 0 -5
-7 -8 -16 -8 -10 0 -14 -6 -11 -14 3 -8 -1 -17 -9 -20 -9 -3 -12 -1 -9 4 3 6
-3 10 -14 10 -14 0 -21 -6 -21 -19 0 -25 19 -31 66 -21 26 6 41 5 45 -2 6 -9
11 -9 21 -1 7 6 34 14 61 18 39 6 47 5 47 -9 0 -19 21 -21 38 -4 9 9 15 9 23
1 6 -6 18 -9 27 -5 13 5 12 7 -4 13 -14 6 -9 8 19 8 20 1 37 6 37 11 0 6 -4
10 -10 10 -5 0 -10 5 -10 10 0 6 9 10 21 10 14 0 19 5 16 14 -3 8 -3 17 0 20
8 8 58 -76 55 -92 -2 -6 5 -12 14 -12 9 0 14 6 11 14 -4 9 4 13 26 14 29 1 30
-1 15 -12 -18 -13 -25 -36 -10 -36 4 0 18 12 31 25 17 18 34 25 61 25 22 0 41
-4 44 -9 3 -5 23 -8 43 -7 21 2 62 3 91 4 28 1 52 7 52 12 0 6 -9 10 -19 10
-11 0 -23 5 -26 10 -4 6 17 10 57 9 42 0 56 -3 43 -8 -11 -5 -26 -6 -32 -4 -7
3 -13 1 -13 -5 0 -13 24 -22 63 -23 18 0 26 -3 20 -6 -10 -3 -10 -8 1 -19 17
-16 66 -19 66 -4 0 6 -5 10 -11 10 -6 0 -17 7 -25 15 -14 13 -10 15 36 15 48
0 52 -2 63 -30 6 -16 15 -30 20 -30 5 0 6 8 2 18 -12 32 -10 37 17 40 21 3 26
0 22 -11 -3 -8 1 -17 9 -20 10 -4 13 1 9 20 -8 41 66 86 82 51 5 -10 7 -10 12
0 7 14 34 16 34 2 0 -10 -21 -15 -55 -11 -29 3 -65 -8 -65 -19 0 -6 27 -10 60
-10 57 0 65 -5 61 -32 0 -4 13 -6 29 -5 29 2 37 21 9 23 -32 3 -33 5 -9 19
l25 15 -23 6 c-21 6 -21 7 -5 20 10 7 27 13 38 13 11 0 14 -3 8 -6 -18 -7 -16
-23 2 -23 8 0 15 5 15 10 0 6 11 10 25 10 16 0 25 -6 25 -15 0 -10 -10 -15
-31 -15 -17 0 -28 -4 -24 -10 3 -6 -2 -10 -12 -10 -11 -1 -2 -9 21 -20 47 -24
50 -24 43 -6 -8 21 21 25 125 19 59 -3 97 -10 106 -19 18 -19 46 -18 38 1 -4
12 1 14 32 10 31 -5 86 -9 165 -14 24 -1 22 -21 -3 -21 -11 0 -20 -5 -20 -11
0 -8 78 -10 289 -6 218 4 291 3 295 -6 3 -9 5 -9 5 1 1 6 8 12 17 12 8 0 12
-4 9 -10 -3 -5 -2 -10 3 -10 6 0 12 6 15 13 4 10 34 14 107 15 94 2 102 1 98
-16 -3 -12 1 -18 12 -18 10 0 16 6 13 12 -2 7 1 15 8 20 7 4 15 2 17 -4 2 -7
10 -12 18 -12 9 0 12 5 8 11 -5 8 11 10 55 7 33 -2 61 -1 61 4 0 4 23 8 51 8
46 0 51 -2 46 -20 -7 -27 24 -27 48 0 19 21 57 28 52 9 -1 -6 4 -14 11 -16 6
-3 12 2 12 11 0 9 4 16 10 16 5 0 9 -3 8 -7 -4 -22 17 -43 43 -43 30 0 72 28
63 42 -9 14 -34 9 -34 -7 0 -10 -10 -15 -30 -15 -40 0 -30 28 13 35 48 7 107
2 107 -9 0 -7 3 -8 8 -1 7 10 81 15 80 5 -1 -19 5 -21 23 -4 17 15 23 16 41 5
16 -10 23 -10 37 3 18 16 111 23 111 9 0 -5 11 -8 25 -8 26 0 34 10 13 17 -7
3 29 2 80 0 53 -3 97 0 105 6 7 6 34 7 67 2 63 -9 71 -6 44 15 -17 14 -13 15
43 9 l63 -7 -6 45 c-6 44 -6 45 22 49 16 2 49 1 74 -2 25 -3 40 -7 34 -7 -21
-3 -55 -40 -44 -47 6 -4 17 1 25 11 11 15 17 16 38 7 14 -7 28 -21 32 -32 7
-22 39 -29 50 -11 4 6 11 5 19 -3 8 -6 12 -15 9 -20 -2 -4 8 -7 22 -7 15 0 24
4 20 10 -4 6 18 10 59 10 54 0 70 4 87 21 11 11 19 22 17 24 -7 7 -73 7 -113
0 -37 -7 -39 -6 -20 8 19 15 19 15 -13 24 -32 8 -32 8 -12 25 11 10 20 13 20
7 0 -5 8 -9 18 -7 11 2 17 -3 16 -14 -1 -11 5 -18 16 -18 22 0 32 24 17 39 -9
10 -6 11 16 6 19 -5 27 -3 27 6 1 9 4 8 11 -3 5 -10 16 -18 23 -18 8 0 20 -8
27 -17 12 -15 12 -16 -2 -11 -13 5 -16 1 -15 -18 1 -18 7 -24 25 -24 20 0 21
2 11 15 -10 12 -9 15 7 15 10 0 31 -5 45 -12 l25 -12 -21 -17 c-12 -10 -17
-21 -13 -25 4 -5 11 -3 15 3 5 8 50 12 127 14 141 2 235 15 251 35 10 12 12
11 17 -7 6 -21 22 -22 91 -2 12 3 16 1 12 -6 -4 -6 -1 -11 8 -11 8 0 16 4 18
9 5 15 103 18 101 4 -3 -15 23 -18 32 -4 3 6 -4 15 -15 21 -29 15 -25 27 13
33 17 4 43 9 56 13 17 5 22 4 17 -4 -4 -7 -1 -12 8 -12 29 0 46 12 46 34 1 19
2 18 16 -7 17 -31 39 -26 30 7 -5 19 -3 19 14 -4 19 -25 19 -25 0 -28 -17 -3
-18 -6 -8 -25 6 -12 10 -24 9 -27 -1 -2 3 -6 10 -9 7 -2 10 2 6 11 -4 11 3 15
25 16 28 1 29 0 14 -17 -9 -10 -13 -21 -9 -24 11 -12 23 -8 23 8 0 8 7 15 15
15 8 0 15 5 15 10 0 12 77 13 84 1 4 -5 34 -8 69 -6 34 1 74 3 90 4 31 1 38
21 7 21 -11 0 -20 5 -20 10 0 6 27 10 62 10 61 0 78 -10 19 -12 -57 -2 -28
-28 30 -28 18 0 28 -4 24 -10 -3 -5 -1 -10 5 -10 6 0 8 -4 5 -10 -4 -6 7 -10
24 -10 17 0 31 5 31 10 0 6 -7 10 -16 10 -8 0 -13 4 -9 9 3 5 -3 12 -12 14
-10 3 2 4 27 2 25 -2 53 -4 62 -4 10 -1 17 -4 17 -9 -4 -24 3 -42 17 -42 11 0
14 5 9 18 -12 31 -10 36 13 40 16 2 22 -2 22 -15 1 -17 2 -17 13 -1 16 20 146
30 133 10 -10 -17 12 -34 35 -27 l24 8 -24 9 c-23 8 -23 9 -5 23 19 13 19 14
0 21 -18 7 -18 8 0 21 10 7 25 13 33 13 13 0 13 -2 2 -9 -11 -7 -11 -10 0 -17
7 -4 14 -3 17 4 5 17 49 15 56 -3 4 -11 -2 -15 -24 -15 -17 0 -30 -5 -30 -11
0 -5 -4 -7 -10 -4 -5 3 -7 0 -5 -7 9 -21 54 -38 78 -28 21 8 21 9 2 10 -17 0
-18 2 -4 10 9 5 38 8 65 5 27 -2 73 -4 102 -5 29 0 51 -4 48 -9 -3 -5 1 -12
10 -15 25 -10 34 -7 34 10 0 10 6 14 18 10 9 -3 56 -7 104 -10 48 -3 91 -6 95
-7 20 -3 34 2 28 11 -3 5 -1 10 4 10 6 0 11 6 11 14 0 19 23 26 57 16 l28 -8
-32 -1 c-18 -1 -33 -6 -33 -12 0 -7 9 -9 23 -5 12 3 30 6 39 6 10 0 17 6 15
13 -1 7 11 13 31 15 26 3 32 0 32 -17 0 -10 -6 -21 -12 -24 -7 -2 -10 -8 -6
-12 5 -5 16 0 25 11 12 12 30 19 51 17 17 0 32 2 32 6 0 6 32 20 89 36 17 5
21 4 16 -5 -5 -8 -1 -11 11 -8 11 2 18 10 16 18 -3 11 0 11 12 1 8 -7 21 -9
28 -5 22 14 98 12 113 -2 16 -16 35 -18 35 -4 0 6 8 5 20 -2 20 -13 20 -13 -2
-18 -33 -8 -35 -30 -1 -30 17 0 33 8 41 20 8 13 8 20 1 20 -5 0 -7 5 -3 11 3
6 17 8 30 5 28 -7 31 1 7 20 -11 8 -13 13 -6 14 7 0 21 -10 32 -21 19 -21 22
-21 108 -7 50 9 109 12 138 9 l50 -7 -45 -8 c-25 -4 -81 -9 -125 -12 -127 -7
-159 -13 -175 -34 -14 -18 -36 -21 -224 -30 -116 -6 -233 -10 -261 -9 -29 1
-57 -1 -64 -5 -7 -5 -50 -7 -97 -7 -56 1 -84 -3 -84 -10 0 -9 77 -10 290 -6
178 4 290 2 290 -4 0 -5 5 -9 11 -9 5 0 7 4 4 10 -3 5 1 10 9 10 9 0 16 -4 16
-10 0 -5 5 -10 11 -10 5 0 8 4 4 9 -8 14 18 18 118 20 73 2 87 0 87 -13 0 -21
17 -20 29 1 8 15 12 16 22 5 15 -14 33 -16 24 -2 -4 6 9 10 32 11 232 5 362
10 380 14 l21 5 2 490 1 490 -9186 0 -9186 0 1 -490z m12845 -467 c8 -9 29
-10 85 -3 41 6 83 7 93 4 14 -4 17 -3 12 6 -6 9 -2 9 15 0 12 -6 20 -14 17
-16 -3 -3 -52 -8 -108 -11 -119 -5 -179 -18 -179 -37 0 -15 -88 -23 -360 -32
-96 -3 -192 -9 -213 -14 -42 -9 -87 6 -79 28 4 14 58 16 67 2 3 -5 14 -10 23
-9 15 0 15 1 -1 8 -13 5 -5 10 33 17 28 6 53 7 56 2 3 -4 -2 -8 -11 -8 -9 0
-14 -4 -11 -9 3 -5 24 0 45 11 41 20 61 18 61 -8 0 -8 4 -14 9 -14 15 0 23 18
11 25 -17 10 -12 19 18 31 42 18 71 23 77 13 3 -4 12 -6 20 -3 8 4 12 11 8 18
-4 7 -1 7 9 -1 8 -7 17 -10 21 -7 3 3 29 7 57 9 38 3 53 0 57 -11 6 -16 39
-19 45 -5 2 5 12 3 22 -5 19 -13 19 -14 -7 -14 -17 0 -27 -5 -27 -15 0 -10 10
-15 30 -15 19 0 30 5 31 15 1 8 2 21 3 28 1 6 10 13 21 13 38 3 40 5 23 15
-10 5 -18 15 -18 21 0 11 26 -6 45 -29z"/>
<path d="M10126 674 c-4 -11 -13 -14 -27 -11 -15 4 -23 0 -26 -12 -3 -13 -16
-18 -55 -20 -33 -1 -48 2 -43 8 3 6 -1 11 -9 11 -9 0 -16 5 -16 10 0 6 -7 10
-15 10 -9 0 -12 -6 -9 -15 4 -8 10 -13 14 -10 5 3 11 1 15 -5 4 -6 -8 -10 -29
-10 -24 0 -39 6 -49 21 -11 14 -16 17 -19 7 -4 -11 -8 -11 -20 0 -10 8 -19 9
-22 3 -4 -5 4 -17 16 -27 17 -12 18 -15 5 -10 -24 8 -44 -4 -26 -15 11 -7 10
-11 -6 -23 -20 -15 -20 -15 3 -9 12 3 22 9 22 13 0 5 44 9 98 10 112 1 158 5
225 15 39 6 50 12 58 32 12 32 12 33 -6 33 -9 0 -18 -7 -21 -15 -8 -20 -22
-19 -20 2 1 23 -30 29 -38 7z"/>
</g>
</svg>
